<svg width="302.51919241627456" height="304.915625" viewBox="0 0 350 352.77255600745406" xmlns="http://www.w3.org/2000/svg">
  <g transform="matrix(23.771735335591316,0,0,23.771735335591316,-2.677463205789137,-118.8586880132033)" fill="#08d9d6">
    <path d="M14.78 18.86 q0.14 0.32 -0.07 0.65 t-0.57 0.33 l-13.32 0 q-0.18 0 -0.34 -0.09 t-0.24 -0.23 q-0.22 -0.32 -0.06 -0.66 l0.62 -1.46 q0.08 -0.2 0.26 -0.32 t0.38 -0.12 l9.32 0 l-3.28 -7.84 l-2.68 6.4 q-0.08 0.2 -0.25 0.31 t-0.39 0.11 l-1.68 0 q-0.38 0 -0.6 -0.32 q-0.08 -0.14 -0.1 -0.32 t0.04 -0.34 l4.06 -9.52 q0.08 -0.2 0.25 -0.32 t0.39 -0.12 l1.92 0 q0.22 0 0.39 0.12 t0.25 0.32 z"></path>
  </g>
</svg>
