<svg width="429" height="70.54344769967258" viewBox="0 0 350 57.55292935870723" xmlns="http://www.w3.org/2000/svg">
  <g transform="matrix(3.8782294520463987,0,0,3.8782294520463987,-0.43681357355157957,-19.391143561664173)" fill="#08d9d6">
    <path d="M14.78 18.86 q0.14 0.32 -0.07 0.65 t-0.57 0.33 l-13.32 0 q-0.18 0 -0.34 -0.09 t-0.24 -0.23 q-0.22 -0.32 -0.06 -0.66 l0.62 -1.46 q0.08 -0.2 0.26 -0.32 t0.38 -0.12 l9.32 0 l-3.28 -7.84 l-2.68 6.4 q-0.08 0.2 -0.25 0.31 t-0.39 0.11 l-1.68 0 q-0.38 0 -0.6 -0.32 q-0.08 -0.14 -0.1 -0.32 t0.04 -0.34 l4.06 -9.52 q0.08 -0.2 0.25 -0.32 t0.39 -0.12 l1.92 0 q0.22 0 0.39 0.12 t0.25 0.32 z M28.2 5 q0.34 0 0.58 0.3 q0.2 0.34 0.06 0.66 l-5.38 13.28 q-0.08 0.2 -0.26 0.32 t-0.38 0.12 l-1.72 0 q-0.22 0 -0.39 -0.12 t-0.27 -0.32 l-5.38 -13.28 q-0.14 -0.36 0.08 -0.66 q0.1 -0.14 0.25 -0.22 t0.33 -0.08 l1.64 0 q0.2 0 0.38 0.12 t0.26 0.32 l3.96 9.94 l3.94 -9.94 q0.1 -0.2 0.27 -0.32 t0.39 -0.12 l1.64 0 z M32.78 5 q0.28 0 0.49 0.21 t0.21 0.49 l0 13.28 q0 0.28 -0.21 0.49 t-0.49 0.21 l-1.5 0 q-0.28 0 -0.49 -0.21 t-0.21 -0.49 l0 -13.28 q0 -0.28 0.21 -0.49 t0.49 -0.21 l1.5 0 z M49.88 18.86 q0.14 0.32 -0.07 0.65 t-0.57 0.33 l-13.32 0 q-0.18 0 -0.34 -0.09 t-0.24 -0.23 q-0.22 -0.32 -0.06 -0.66 l0.62 -1.46 q0.08 -0.2 0.26 -0.32 t0.38 -0.12 l9.32 0 l-3.28 -7.84 l-2.68 6.4 q-0.08 0.2 -0.25 0.31 t-0.39 0.11 l-1.68 0 q-0.38 0 -0.6 -0.32 q-0.08 -0.14 -0.1 -0.32 t0.04 -0.34 l4.06 -9.52 q0.08 -0.2 0.25 -0.32 t0.39 -0.12 l1.92 0 q0.22 0 0.39 0.12 t0.25 0.32 z M61.08 14.02 l2.98 4.58 q0.1 0.16 0.11 0.36 t-0.08 0.36 t-0.26 0.26 t-0.35 0.1 l-1.8 0 q-0.18 0 -0.34 -0.09 t-0.24 -0.23 l-3 -4.78 l-3.54 0 l0 4.4 q0 0.28 -0.21 0.49 t-0.49 0.21 l-1.5 0 q-0.28 0 -0.49 -0.21 t-0.21 -0.49 l0 -13.28 q0 -0.28 0.21 -0.49 t0.49 -0.21 l6.36 0 q2.3 0 3.73 1.31 t1.43 3.55 q0 1.44 -0.63 2.47 t-1.85 1.55 q-0.08 0.04 -0.26 0.12 z M54.56 7.82 l0 3.94 l3.9 0 q1.72 0 2.34 -0.98 q0.2 -0.36 0.2 -0.92 q0 -0.94 -0.62 -1.48 q-0.68 -0.56 -1.84 -0.56 l-3.98 0 z M76.62 5 q0.28 0 0.48 0.21 t0.2 0.49 l0 1.44 q0 0.28 -0.2 0.49 t-0.48 0.21 l-3.94 0 l0 11.14 q0 0.28 -0.21 0.49 t-0.49 0.21 l-1.5 0 q-0.3 0 -0.5 -0.21 t-0.2 -0.49 l0 -11.14 l-3.94 0 q-0.28 0 -0.49 -0.21 t-0.21 -0.49 l0 -1.44 q0 -0.28 0.21 -0.49 t0.49 -0.21 l10.78 0 z M89.66 5 q0.3 0 0.5 0.21 t0.2 0.49 l0 1.44 q0 0.28 -0.2 0.49 t-0.5 0.21 l-7.56 0 l0 3.06 l6.68 0 q0.3 0 0.5 0.21 t0.2 0.49 l0 1.46 q0 0.28 -0.2 0.49 t-0.5 0.21 l-6.68 0 l0 3.08 l7.56 0 q0.3 0 0.5 0.21 t0.2 0.49 l0 1.44 q0 0.28 -0.2 0.49 t-0.5 0.21 l-9.76 0 q-0.28 0 -0.49 -0.21 t-0.21 -0.49 l0 -13.28 q0 -0.28 0.21 -0.49 t0.49 -0.21 l9.76 0 z"></path>
  </g>
</svg>
